<?xml version="1.0" standalone="no"?>
<!DOCTYPE svg PUBLIC "-//W3C//DTD SVG 20010904//EN"
 "http://www.w3.org/TR/2001/REC-SVG-20010904/DTD/svg10.dtd">
<svg version="1.0" xmlns="http://www.w3.org/2000/svg"
 width="488.000000pt" height="510.000000pt" viewBox="0 0 488.000000 510.000000"
 preserveAspectRatio="xMidYMid meet">

<g transform="translate(0.000000,510.000000) scale(0.100000,-0.100000)"
fill="#000000" stroke="none">
<path d="M0 2550 l0 -2550 2440 0 2440 0 0 2550 0 2550 -2440 0 -2440 0 0
-2550z m2449 1517 c27 -57 54 -92 130 -167 103 -102 236 -200 271 -200 13 0
24 8 27 20 6 24 16 25 34 4 31 -37 183 -147 261 -189 45 -24 123 -57 172 -73
48 -17 92 -34 97 -39 5 -5 19 -52 31 -104 40 -173 25 -561 -33 -817 -26 -118
-91 -327 -119 -382 -75 -148 -243 -265 -453 -315 -192 -46 -388 -66 -702 -72
-493 -9 -902 33 -1095 111 -71 29 -193 109 -245 161 -91 90 -174 338 -225 665
-29 190 -36 447 -17 575 9 55 22 118 30 139 l14 40 54 -3 c66 -3 245 31 354
66 153 49 462 219 568 312 20 18 37 31 38 30 0 -2 2 -13 4 -24 2 -11 12 -25
21 -32 14 -10 35 -3 133 47 64 33 144 82 178 110 34 27 64 50 66 50 3 0 2 -20
0 -44 -5 -38 -2 -46 16 -56 26 -13 70 9 183 92 66 48 158 141 158 159 0 25 19
1 49 -64z m-1935 -1209 c3 -13 8 -65 11 -117 7 -106 28 -258 45 -321 6 -23 9
-45 5 -48 -11 -11 -75 31 -116 75 -22 24 -49 65 -61 91 -25 58 -35 175 -18
226 27 84 123 150 134 94z m3123 -23 c89 -93 61 -301 -53 -406 -40 -36 -83
-63 -91 -56 -3 4 -1 26 6 49 16 62 39 227 46 338 4 52 8 101 11 108 6 21 45 5
81 -33z m-2133 -1161 c24 -9 20 -22 -22 -78 -96 -127 -189 -306 -242 -464 -31
-94 -37 -136 -20 -147 6 -4 22 -29 36 -56 13 -27 36 -55 49 -61 39 -18 44 -58
7 -58 -9 0 -32 9 -50 20 -43 27 -67 12 -58 -34 7 -35 25 -49 44 -34 20 17 50
-15 33 -36 -14 -16 -90 -38 -136 -39 -41 0 -119 54 -136 95 -53 127 46 388
273 720 94 137 134 178 173 178 18 0 40 -3 49 -6z m1208 -61 c65 -80 146 -203
217 -328 37 -64 51 -100 51 -127 0 -21 13 -66 29 -100 16 -35 32 -74 36 -88 4
-14 14 -34 21 -45 19 -27 18 -109 -2 -151 -24 -51 -141 -114 -158 -85 -8 12
19 74 37 90 8 6 18 28 21 49 4 20 12 57 18 83 16 66 -7 110 -76 144 -49 24
-54 30 -70 83 -31 96 -129 292 -199 394 -58 87 -72 115 -68 141 0 4 21 7 45 7
42 0 46 -3 98 -67z m-205 10 c20 -56 61 -285 68 -378 3 -44 8 -94 11 -112 4
-30 2 -33 -33 -43 -74 -21 -497 -33 -750 -21 -269 12 -316 20 -309 54 3 12 7
54 11 92 12 146 49 352 79 440 2 7 162 9 457 8 l453 -1 13 -39z m1146 -33 c62
-30 95 -73 108 -146 15 -83 -3 -234 -28 -234 -5 0 -14 12 -21 28 -18 42 -86
80 -204 115 -22 7 -39 19 -43 31 -6 21 -6 21 -14 1 -6 -16 -16 -19 -45 -17
-73 7 -221 -89 -241 -155 -18 -63 -49 20 -48 132 0 45 5 97 12 117 14 43 74
101 128 123 95 41 316 43 396 5z m182 -150 c9 -17 16 -54 16 -83 -1 -29 2 -69
5 -89 5 -28 1 -44 -15 -67 -13 -18 -17 -32 -11 -36 12 -7 14 -92 3 -98 -5 -3
-25 10 -46 28 l-37 32 27 59 c23 50 27 76 31 172 3 61 6 112 8 112 2 0 11 -14
19 -30z m-760 -98 c0 -97 3 -112 28 -164 l28 -57 -27 -41 c-21 -32 -30 -38
-40 -29 -8 6 -14 19 -14 28 0 9 -5 22 -11 28 -7 7 -13 29 -15 50 -2 21 -6 56
-10 78 -4 27 -1 54 10 79 9 21 16 49 16 62 0 25 19 74 29 74 3 0 6 -48 6 -108z
m464 -46 c119 -59 126 -64 140 -104 13 -34 12 -45 -2 -90 -10 -28 -17 -80 -17
-115 0 -52 -5 -71 -25 -101 -13 -20 -22 -43 -19 -51 7 -18 -14 -75 -28 -75 -5
0 -18 -16 -29 -35 -12 -19 -27 -35 -33 -35 -7 0 -21 -9 -31 -20 -10 -11 -26
-20 -35 -20 -9 0 -20 -4 -25 -9 -13 -13 -105 17 -105 34 0 7 -9 24 -21 38 -11
15 -23 44 -26 64 -3 21 -16 51 -29 66 -13 15 -29 47 -35 70 -6 23 -17 54 -25
69 -16 29 -13 130 5 187 11 36 64 93 120 129 32 20 44 22 115 17 44 -3 91 -12
105 -19z m267 -291 c66 -86 100 -168 113 -275 15 -113 0 -140 -74 -140 -45 0
-55 5 -72 37 -20 35 -16 60 13 80 26 19 26 20 14 78 -13 64 -29 105 -41 105
-13 0 -19 -48 -9 -75 15 -39 12 -64 -10 -92 -26 -33 -25 -83 0 -127 l21 -34
-21 -94 c-12 -51 -28 -114 -37 -141 l-15 -47 -253 0 c-233 0 -254 1 -259 18
-10 34 -38 199 -51 301 -12 87 -12 108 -1 130 8 14 17 55 21 91 6 53 3 75 -14
119 -13 35 -17 60 -12 70 7 12 13 7 26 -24 9 -22 23 -60 31 -85 7 -25 25 -61
39 -80 14 -18 25 -43 25 -55 0 -22 43 -109 67 -137 25 -28 107 -42 159 -28 75
21 194 151 194 212 0 15 10 44 22 64 17 29 23 54 23 109 1 119 23 124 101 20z
m-909 -6 c40 -25 47 -44 28 -82 -8 -16 -15 -44 -15 -62 0 -20 -8 -39 -24 -54
-14 -13 -22 -29 -20 -36 9 -23 -25 -45 -69 -45 -60 0 -90 19 -106 66 -13 38
-12 47 12 126 15 47 33 90 39 96 32 26 103 21 155 -9z m-1271 -46 c156 -24
672 -24 828 0 131 20 126 20 126 4 0 -8 -19 -19 -42 -26 -60 -18 -237 -95
-337 -147 -79 -41 -90 -44 -163 -44 -77 0 -81 1 -211 66 -72 37 -177 84 -232
105 -55 20 -101 42 -103 48 -5 14 5 14 134 -6z m-54 -113 c29 -12 97 -42 150
-67 l97 -46 -20 -39 c-44 -86 -34 -236 27 -408 39 -109 41 -130 16 -153 -14
-13 -36 -17 -98 -15 -43 1 -115 -2 -160 -7 -88 -8 -147 4 -158 32 -4 9 0 23 8
31 11 12 21 12 47 3 31 -11 36 -9 127 61 l94 71 -5 40 c-3 22 -26 78 -50 126
-61 118 -95 201 -117 296 -21 85 -23 95 -15 95 2 0 28 -9 57 -20z m998 2 c0
-47 -58 -211 -121 -340 -38 -78 -69 -155 -69 -170 0 -28 5 -33 126 -125 58
-44 64 -46 93 -36 34 12 61 0 61 -28 0 -30 -69 -46 -160 -38 -47 4 -122 8
-168 9 -70 1 -86 4 -98 20 -20 28 -18 50 11 115 35 80 65 219 65 304 0 55 -6
84 -25 125 l-25 53 88 41 c87 40 200 87 215 88 4 0 7 -8 7 -18z m754 -628 c3
-9 6 -25 6 -36 0 -11 10 -37 21 -58 35 -61 24 -70 -81 -70 -79 0 -90 2 -90 18
0 9 16 26 37 37 50 28 60 47 43 82 -8 15 -16 31 -18 36 -2 4 14 7 36 7 27 0
42 -5 46 -16z m296 10 c0 -3 -8 -19 -17 -35 -22 -36 -12 -55 40 -84 21 -11 37
-28 37 -37 0 -16 -11 -18 -90 -18 -100 0 -116 10 -86 55 9 13 21 47 27 75 11
50 11 50 50 50 21 0 39 -3 39 -6z"/>
<path d="M1141 3398 c-91 -43 -183 -143 -151 -163 5 -3 61 22 126 56 111 58
119 61 169 55 69 -8 226 -57 343 -107 52 -22 101 -39 110 -37 26 5 38 34 22
53 -33 40 -241 123 -400 160 -99 23 -146 19 -219 -17z"/>
<path d="M2665 3405 c-176 -46 -346 -119 -366 -158 -12 -22 4 -47 31 -47 9 0
51 15 91 34 112 52 304 108 374 110 56 1 67 -3 152 -51 79 -46 133 -65 133
-48 0 4 -7 19 -14 34 -22 41 -81 90 -150 122 -75 36 -127 36 -251 4z"/>
<path d="M1010 3215 c-240 -45 -327 -141 -337 -370 -8 -163 29 -279 120 -381
25 -27 67 -62 94 -76 58 -32 179 -67 265 -76 l62 -7 2 -37 c4 -50 24 -87 79
-137 60 -55 151 -96 290 -131 155 -39 282 -53 495 -53 343 0 581 61 687 176
41 44 49 67 55 147 l3 35 75 7 c172 15 318 77 388 165 131 166 149 450 38 604
-39 53 -123 101 -217 124 -103 26 -343 31 -472 11 -126 -20 -243 -53 -314 -90
-101 -51 -173 -176 -173 -301 0 -29 -3 -56 -7 -58 -5 -3 -29 0 -55 6 -39 9
-48 16 -50 36 -5 39 -25 36 -65 -8 -20 -23 -40 -41 -45 -41 -4 0 -8 24 -8 54
0 74 -33 174 -75 229 -57 74 -149 119 -330 158 -121 27 -399 34 -505 14z m432
-65 c127 -22 245 -59 298 -94 82 -54 125 -166 118 -305 -5 -97 -32 -172 -76
-214 -22 -20 -41 -26 -107 -31 -191 -16 -323 -52 -389 -106 -52 -43 -62 -44
-216 -9 -114 26 -180 60 -233 119 -69 76 -100 162 -105 290 -7 189 44 276 198
334 103 39 338 46 512 16z m1653 -3 c95 -26 174 -78 202 -130 75 -146 48 -368
-61 -502 -63 -76 -208 -132 -388 -150 -64 -6 -68 -5 -121 30 -66 44 -181 81
-297 96 -112 14 -133 23 -165 69 -70 101 -77 289 -15 410 47 91 168 148 395
186 99 17 377 11 450 -9z m-973 -453 c19 -10 31 -27 39 -57 6 -23 20 -59 30
-79 10 -20 19 -39 19 -40 0 -4 -344 3 -348 7 -2 1 6 20 17 41 12 21 24 53 27
71 9 47 31 62 50 35 20 -29 44 -52 53 -52 5 0 15 7 22 16 11 13 11 21 -3 44
-9 16 -13 31 -10 35 9 9 70 -4 104 -21z m121 -253 c41 -4 74 -14 84 -24 16
-15 14 -18 -22 -33 -21 -9 -75 -23 -119 -31 -158 -30 -461 0 -461 45 0 7 14
21 30 32 27 18 47 20 225 19 107 0 225 -3 263 -8z"/>
<path d="M1256 2829 c-74 -58 -74 -180 -1 -237 94 -74 212 59 161 182 -29 70
-106 97 -160 55z"/>
<path d="M2665 2817 c-37 -37 -51 -87 -40 -144 9 -50 63 -103 105 -103 108 0
158 164 75 247 -46 46 -94 46 -140 0z"/>
<path d="M3287 1423 c-14 -13 -6 -33 13 -33 13 0 20 7 20 20 0 19 -20 27 -33
13z"/>
<path d="M3552 1408 c6 -18 28 -21 28 -4 0 9 -7 16 -16 16 -9 0 -14 -5 -12
-12z"/>
</g>
</svg>
